<?xml version="1.0" encoding="utf-8"?>
<!-- Generator: Adobe Illustrator 17.0.0, SVG Export Plug-In . SVG Version: 6.00 Build 0)  -->
<!DOCTYPE svg PUBLIC "-//W3C//DTD SVG 1.1//EN" "http://www.w3.org/Graphics/SVG/1.1/DTD/svg11.dtd">
<svg version="1.1" id="Layer_2" xmlns="http://www.w3.org/2000/svg" xmlns:xlink="http://www.w3.org/1999/xlink" x="0px" y="0px"
	 width="77px" height="28px" viewBox="0 0 77 28" enable-background="new 0 0 77 28" xml:space="preserve">
<symbol  id="logo_x5F_gry_x5F_90x40" viewBox="0 -40 90 40">
	<g>
		<g opacity="0.6">
			<path fill="#231F20" d="M30.857-27.95c-4.455,0-6.847,3.625-6.847,6.849c0,3.775,3.01,7.051,7.269,7.051
				c4.121,0,6.711-3.364,6.711-6.848C37.99-24.297,35.429-27.95,30.857-27.95z M34.566-25.383c0.712,0.887,0.884,1.991,0.884,3.081
				c0,2.443-1.238,7.102-4.891,7.102c-0.975,0-1.944-0.36-2.653-0.943c-1.15-0.968-1.357-2.189-1.357-3.384
				c0-2.75,1.445-7.273,5.006-7.273C32.71-26.8,33.887-26.275,34.566-25.383z"/>
		</g>
	</g>
	<g>
		<path opacity="0.6" fill="#231F20" d="M71.014-8.6H69L70.5-7h4.93L74.23-8.2C74.087-8.343,74-8.532,74-8.75l-0.001-17.323
			c0-0.43,0.31-0.778,0.729-0.829l1.655-0.199l-0.895-0.889H69.57l1.201,1.19c0.143,0.143,0.23,0.332,0.23,0.55L71.014-8.6z"/>
	</g>
	<g>
		<g opacity="0.6">
			<path fill="#231F20" d="M85.824-26.273c-2.591,0-5.018,1.724-5.874,4.97l8.999,3.536c-0.479,1.689-1.84,3.616-5.375,3.616
				c-2.913,0-6.474-2.165-6.474-6.579c0-3.477,2.339-7.121,6.926-7.121c0.943,0,2.417,0.058,3.921,1.111
				c0.57,0.388,1.052,0.854,1.452,1.367C88.397-25.856,87.328-26.273,85.824-26.273z M83.024-15.086
				c1.592,0,3.076-1.326,3.076-2.464c0-0.399-0.452-0.589-1.012-0.788l-5.309-2.071C78.954-16.127,81.819-15.086,83.024-15.086z"/>
		</g>
	</g>
	<g>
		<g opacity="0.6">
			<path fill="#231F20" d="M11.923-28.8c-3.128,0-5.496,0.854-7.333,2.15c-3.198,2.258-4.49,5.834-4.49,9.365
				c0,3.316,1.869,6.491,4.542,8.585c2.079,1.629,4.759,2.5,7.786,2.5c1.666,0,3.124-0.198,4.572-0.599
				c2.239-0.627,3.317-1.398,4-1.867l-2.99-3v2.016c-1.159,0.978-2.707,2.25-6.255,2.25c-4.708,0-8.305-3.374-8.305-9.091
				S7.72-27.5,13.605-27.5c2.186,0,3.509,0.307,4.405,0.6v5.3H14l1.6,1.6h6.75l-1.115-1.115C21.089-21.26,21-21.46,21-21.682v-5.74
				C19.556-27.819,16.295-28.8,11.923-28.8z"/>
		</g>
	</g>
	<g>
		<g opacity="0.6">
			<path fill="#231F20" d="M46.857-27.95c-4.455,0-6.847,3.625-6.847,6.849c0,3.775,3.01,7.051,7.269,7.051
				c4.121,0,6.711-3.364,6.711-6.848C53.99-24.297,51.429-27.95,46.857-27.95z M50.566-25.383c0.712,0.887,0.884,1.991,0.884,3.081
				c0,2.443-1.238,7.102-4.891,7.102c-0.974,0-1.944-0.36-2.653-0.943c-1.15-0.968-1.357-2.189-1.357-3.384
				c0-2.75,1.445-7.273,5.006-7.273C48.71-26.8,49.887-26.275,50.566-25.383z"/>
		</g>
	</g>
	<polygon opacity="0.1" fill="none" points="90,-40 0,-40 0,0 90,0 	"/>
	<g>
		<g opacity="0.6">
			<path fill="#231F20" d="M66.3-27.449c0,0-1.082,0.85-1.082,0.85c-0.362,0.299-0.818,0.691-0.818,1.418
				c0,0.732,0.546,1.291,0.972,1.621c1.307,1.014,2.567,2.097,2.567,4.338c0,1.789-0.987,2.919-1.738,3.622h1.564l1.193,1.55h-6.292
				c-4.36,0-6.598-2.715-6.598-5.725c0-2.328,1.789-4.824,4.98-4.824h0.802c-0.125-0.35-0.35-0.84-0.35-1.3
				c0-1.017,0.421-1.437,0.921-2c-1.399-0.092-4.013-0.428-5.939-1.606C54.644-30.6,54.2-32.134,54.2-33.25
				c0-2.303,2.063-4.5,6.569-4.5c5.35,0,8.031,2.958,8.031,5.878C68.8-29.717,67.665-28.601,66.3-27.449z M58.652-18.313
				c0,2.21,1.312,3.213,2.688,3.213c2.644,0,4.01-3.45,4.01-5.535c0-2.572-2.067-3.065-2.887-3.065
				C59.993-23.7,58.652-20.641,58.652-18.313z M62.3-36.3c-3.326,0-5.45,1.492-5.45,3.7c0,2.203,1.963,2.907,2.649,3.158
				c1.305,0.436,2.984,0.494,3.269,0.494c0.307,0,0.462,0,0.708-0.025c2.367-1.692,3.374-2.439,3.374-4.026
				C66.85-34.77,65.027-36.3,62.3-36.3z"/>
		</g>
	</g>
</symbol>
<use xlink:href="#logo_x5F_gry_x5F_90x40"  width="90" height="40" id="XMLID_2_" y="-40" transform="matrix(0.8413 0 0 -0.8413 0.909 -4.5)" overflow="visible"/>
</svg>
