<?xml version="1.0" encoding="UTF-8" standalone="no"?>
<svg width="77px" height="28px" viewBox="0 0 77 28" version="1.1" xmlns="http://www.w3.org/2000/svg" xmlns:xlink="http://www.w3.org/1999/xlink" xmlns:sketch="http://www.bohemiancoding.com/sketch/ns">
    <!-- Generator: Sketch 3.0.4 (8053) - http://www.bohemiancoding.com/sketch -->
    <title>Google logo</title>
    <desc>Created with Sketch.</desc>
    <defs></defs>
    <g id="Page-1" stroke="none" stroke-width="1" fill="none" fill-rule="evenodd" sketch:type="MSPage">
        <g id="Landing-Page-Nexus-9" sketch:type="MSArtboardGroup" transform="translate(-1280.000000, -1622.000000)" fill="#979797">
            <g id="Footer" sketch:type="MSLayerGroup" transform="translate(0.000000, 1571.000000)">
                <g id="Links" transform="translate(1281.000000, 52.000000)" sketch:type="MSShapeGroup">
                    <path d="M74.2532606,17.5395013 C73.9642349,17.6974673 73.6743308,17.8789972 73.3853051,18.0107809 C72.5138355,18.4043867 71.6204035,18.5091155 70.8288773,18.5091155 C69.9881552,18.5091155 68.6704089,18.4558783 67.3271862,17.4888824 C65.4559864,16.178027 64.6398622,13.928976 64.6398622,11.9653111 C64.6398622,7.90968835 67.9588259,5.92071392 70.6725047,5.92071392 C71.6204035,5.92071392 72.5946573,6.15897194 73.3853051,6.65468825 C74.7021729,7.51870083 75.0421514,8.64278993 75.2266359,9.24585326 L69.0384993,11.7314167 L67.0118055,11.8902554 C67.6671647,15.2110311 69.9345668,17.1467683 72.4365277,17.1467683 C73.778872,17.1467683 74.7540042,16.6754887 75.6509502,16.2312641 L74.2532606,17.5395013 L74.2532606,17.5395013 Z M71.7776546,9.74244231 C72.2775197,9.55829418 72.5437044,9.40120098 72.5437044,9.03465019 C72.5437044,7.98823494 71.3550973,6.78385377 69.9345668,6.78385377 C68.8803698,6.78385377 66.9046289,7.59550195 66.9046289,10.421434 C66.9046289,10.8665314 66.9573387,11.3369383 66.9836936,11.8090906 L71.7776546,9.74244231 Z M64.0064655,18.1155097 L59.3451577,18.1155097 C59.9504425,17.3300437 60.0549837,17.2514971 60.0549837,16.7287259 L60.0549837,12.4627728 C60.0549837,10.421434 60.0804601,7.51870083 60.1639174,4.79575208 C60.1867583,3.46220539 60.293935,1.78916283 60.3194114,0.584781656 L58.2654842,0.584781656 L60.2403467,-0.359523007 L64.0064655,-0.359523007 C63.1912198,0.113502065 62.9267921,0.269722522 62.8222509,1.18522677 C62.610533,3.20038339 62.5850565,6.39024803 62.5850565,10.1098658 L62.5850565,16.1535902 C62.5850565,17.1729505 62.769541,17.3300437 63.6392536,17.4094631 C64.0864088,17.4618275 64.5344425,17.4888824 64.9815978,17.5395013 L64.0064655,18.1155097 Z M55.3664424,7.20451444 C55.9726057,7.70284897 57.2385206,8.74664599 57.2385206,10.7364932 C57.2385206,12.6731032 56.1307352,13.5886074 55.0264639,14.4508745 C54.6838498,14.7912431 54.2885259,15.1586667 54.2885259,15.7338023 C54.2885259,16.3106834 54.6838498,16.6239971 54.9728755,16.8587641 L55.9216528,17.5927385 C57.0795126,18.5606071 58.1328311,19.4508019 58.1328311,21.2547554 C58.1328311,23.7158822 55.7371684,26.2014457 51.2049996,26.2014457 C47.3852924,26.2014457 45.5404476,24.3948739 45.5404476,22.4600094 C45.5404476,21.5165774 46.0148363,20.182158 47.5715339,19.2666538 C49.2037823,18.2717302 51.4167175,18.1416919 52.6018107,18.0613998 C52.2337202,17.5927385 51.8111629,17.0952767 51.8111629,16.2845012 C51.8111629,15.8376584 51.9411806,15.5784546 52.0764692,15.2651409 C51.7856865,15.2878322 51.4940253,15.3157599 51.2331116,15.3157599 C48.4394894,15.3157599 46.8617079,13.2473661 46.8617079,11.2069 C46.8617079,10.0042643 47.4116473,8.66897213 48.5457876,7.70284897 C50.0462614,6.47054011 51.8375179,6.26108251 53.2606838,6.26108251 L58.6862845,6.26108251 L57.0004478,7.20451444 L55.3664424,7.20451444 Z M53.4987567,18.8224291 C53.2870388,18.7962469 53.1543856,18.7962469 52.8925934,18.7962469 C52.6536421,18.7962469 51.2331116,18.8477386 50.1270832,19.2142894 C49.5455178,19.4254924 47.8605596,20.0521197 47.8605596,21.9101832 C47.8605596,23.7656284 49.678171,25.1017933 52.4972695,25.1017933 C55.0264639,25.1017933 56.3696866,23.9000303 56.3696866,22.2758612 C56.3696866,20.9414418 55.498217,20.2336497 53.4987567,18.8224291 L53.4987567,18.8224291 Z M54.262171,13.8504294 C54.8683343,13.2473661 54.9192872,12.4104084 54.9192872,11.9400016 C54.9192872,10.0566287 53.7860254,7.12596784 51.599445,7.12596784 C50.915974,7.12596784 50.179793,7.46546369 49.7572357,7.98823494 C49.3083235,8.53893387 49.1783059,9.24585326 49.1783059,9.92659045 C49.1783059,11.6781796 50.202634,14.5817855 52.4682791,14.5817855 C53.1280307,14.5817855 53.8404922,14.2675991 54.262171,13.8504294 L54.262171,13.8504294 Z M39.037809,18.4558783 C34.8482543,18.4558783 32.6115996,15.2110311 32.6115996,12.2803702 C32.6115996,8.85050205 35.4298197,5.92071392 39.4322544,5.92071392 C43.3037929,5.92071392 45.7275676,8.93079413 45.7275676,12.0970948 C45.7275676,15.1848489 43.3301479,18.4558783 39.037809,18.4558783 L39.037809,18.4558783 Z M42.3295392,16.3368656 C42.9603004,15.4990352 43.11843,14.4508745 43.11843,13.4306415 C43.11843,11.1300989 42.0141586,6.73410759 38.7452693,6.73410759 C37.8764352,6.73410759 37.0076012,7.07360344 36.3759615,7.62168415 C35.3481194,8.53893387 35.1636349,9.68920517 35.1636349,10.814167 C35.1636349,13.405332 36.4559048,17.6721578 39.6422153,17.6721578 C40.6683004,17.6721578 41.7224974,17.1729505 42.3295392,16.3368656 L42.3295392,16.3368656 Z M25.024895,18.4558783 C20.8335833,18.4558783 18.5960501,15.2110311 18.5960501,12.2803702 C18.5960501,8.85050205 21.4133917,5.92071392 25.4193404,5.92071392 C29.2917575,5.92071392 31.7137751,8.93079413 31.7137751,12.0970948 C31.7137751,15.1848489 29.3181124,18.4558783 25.024895,18.4558783 L25.024895,18.4558783 Z M28.3157467,16.3368656 C28.9491434,15.4990352 29.105516,14.4508745 29.105516,13.4306415 C29.105516,11.1300989 28.0003661,6.73410759 24.7349908,6.73410759 C23.8643998,6.73410759 22.9955657,7.07360344 22.3648045,7.62168415 C21.3369624,8.53893387 21.1507209,9.68920517 21.1507209,10.814167 C21.1507209,13.405332 22.4421123,17.6721578 25.6293013,17.6721578 C26.6571434,17.6721578 27.7087049,17.1729505 28.3157467,16.3368656 L28.3157467,16.3368656 Z M16.9216339,17.543865 L13.3927093,18.3511495 C11.9598799,18.5728255 10.674638,18.7683192 9.31560233,18.7683192 C2.50021856,18.7683192 -0.0913491325,13.7893376 -0.0913491325,9.88731715 C-0.0913491325,5.1300115 3.58604149,0.712201694 9.88486872,0.712201694 C11.218428,0.712201694 12.5027913,0.909440931 13.6624081,1.22886376 C15.5125238,1.74378036 16.3778439,2.3800078 16.9216339,2.7465586 L14.8712207,4.68665958 L14.0085361,4.88389882 L14.6252413,3.90206634 C13.7871547,3.09303637 12.2541765,1.5962873 9.34107876,1.5962873 C5.43879277,1.5962873 2.50021856,4.54178475 2.50021856,8.83391999 C2.50021856,13.4472235 5.85959308,17.7873595 11.2412689,17.7873595 C12.8234429,17.7873595 13.6378101,17.4688094 14.377505,17.174696 L14.377505,13.2246749 L10.6509186,13.4210413 L12.625781,12.3667714 L17.8598692,12.3667714 L17.218566,12.9794349 C17.0463805,13.1260552 17.0209041,13.1749287 16.9717082,13.3721679 C16.9471103,13.5929711 16.9216339,14.305127 16.9216339,14.5494941 L16.9216339,17.543865" id="Google-logo"></path>
                </g>
            </g>
        </g>
    </g>
</svg>