<svg xmlns="http://www.w3.org/2000/svg" viewBox="0 0 84 28" width="84" height="28">
    <path d="M11.06 20.38c-5.42 0-9.98-4.42-9.98-9.84S5.64.7 11.06.7c3 0 5.14 1.18 6.75 2.71l-1.9 1.9c-1.15-1.08-2.71-1.92-4.85-1.92C7.1 3.39 4 6.58 4 10.54c0 3.96 3.1 7.15 7.06 7.15 2.57 0 4.03-1.03 4.97-1.97.77-.77 1.27-1.87 1.46-3.38h-6.43V9.66h9.05c.1.48.14 1.06.14 1.68 0 2.02-.55 4.51-2.33 6.29-1.73 1.79-3.93 2.75-6.86 2.75zm23.18-6.33c0 3.65-2.8 6.34-6.24 6.34s-6.25-2.69-6.25-6.34c0-3.67 2.8-6.34 6.25-6.34s6.24 2.67 6.24 6.34zm-2.73 0c0-2.28-1.63-3.84-3.51-3.84s-3.51 1.56-3.51 3.84c0 2.26 1.63 3.84 3.51 3.84s3.51-1.59 3.51-3.84zm16.73 0c0 3.65-2.8 6.34-6.25 6.34-3.44 0-6.24-2.69-6.24-6.34 0-3.67 2.8-6.34 6.24-6.34 3.45 0 6.25 2.67 6.25 6.34zm-2.73 0c0-2.28-1.63-3.84-3.51-3.84s-3.51 1.56-3.51 3.84c0 2.26 1.63 3.84 3.51 3.84 1.89 0 3.51-1.59 3.51-3.84zM61.9 8.09v11.38c0 4.68-2.76 6.6-6.02 6.6-3.07 0-4.92-2.06-5.62-3.74l2.42-1.01c.43 1.03 1.49 2.26 3.19 2.26 2.09 0 3.38-1.3 3.38-3.72v-.91h-.1c-.62.77-1.82 1.44-3.34 1.44-3.17 0-6.07-2.76-6.07-6.31 0-3.58 2.9-6.36 6.07-6.36 1.51 0 2.71.67 3.34 1.42h.1V8.09h2.65zm-2.45 5.98c0-2.23-1.49-3.86-3.38-3.86-1.92 0-3.53 1.63-3.53 3.86 0 2.21 1.61 3.82 3.53 3.82 1.89 0 3.38-1.61 3.38-3.82zm7.32-12.7V20h-2.78V1.37h2.78zm10.95 14.77l2.16 1.44c-.7 1.03-2.38 2.81-5.28 2.81-3.6 0-6.2-2.78-6.2-6.34 0-3.77 2.62-6.34 5.89-6.34 3.29 0 4.9 2.62 5.42 4.03l.29.72-8.47 3.5c.65 1.27 1.66 1.92 3.07 1.92s2.4-.69 3.12-1.74zm-6.65-2.28l5.67-2.35c-.31-.79-1.25-1.34-2.35-1.34-1.42-.01-3.39 1.24-3.32 3.69z" opacity=".54"/>
    <path fill="none" d="M0 0h84v28H0z"/>
</svg>
