<?xml version="1.0" encoding="utf-8"?>
<!-- Generator: Adobe Illustrator 18.1.1, SVG Export Plug-In . SVG Version: 6.00 Build 0)  -->
<svg version="1.1" id="Layer_1" xmlns="http://www.w3.org/2000/svg" xmlns:xlink="http://www.w3.org/1999/xlink" x="0px" y="0px"
	 viewBox="0 0 1200 627" enable-background="new 0 0 1200 627" xml:space="preserve">
<g>
	<path fill="#D90472" d="M360.4,148.8h72.9c0,0,0,169.3,0,195.6c0,31,14.2,49.4,25.4,57.3c-11.9,10.5-48.1,19.8-75.1-2.6
		c-15.9-13.2-23.2-34.9-23.2-55.3V148.8z"/>
	<path fill="#D90472" d="M815.8,311.2v-20.6c13.4,0,22.2,0,22.2,0v-72.1c0,0-11.7,0-24.4,0c-9.4-43.3-47.9-75.7-94-75.7
		c-53.1,0-96.2,43-96.2,96.2v168.4c15.1,2.1,33.2-0.3,48.5-13c15.9-13.2,23.2-34.9,23.2-55.3v-6.2c19.6,0,36.4,0,36.4,0v-72.1
		c0,0-20.7,0-36.4,0V239h0.1c0-13.5,10.9-24.4,24.4-24.4s24.5,10.9,24.5,24.4v72.3c0,53.1,43.1,96.2,96.2,96.2v-71.7
		C826.8,335.7,815.8,324.7,815.8,311.2z"/>
	<g>
		<path fill="#D90472" d="M539.8,218.6c0,0,0,94,0,105.8c0,6-5,10.9-11.1,10.9c-6.2,0-11.1-4.9-11.1-10.9c0-11.9,0-105.8,0-105.8
			h-72.1c0,0,0,106.7,0,124.5c0,22.4,7.6,50.7,42.1,59.9c34.6,9.2,54.7-9.9,54.7-9.9c-1.8,12.6-13.7,21.8-32.8,23.8
			c-14.5,1.5-32.9-3.3-42.1-7.2v65.9c23.5,6.9,48.3,9.2,72.6,4.4c44.1-8.6,72-45.4,72-94.5c0-31.6,0-166.9,0-166.9H539.8z"/>
	</g>
</g>
</svg>
